<svg xmlns="http://www.w3.org/2000/svg" xmlns:svg="http://www.w3.org/2000/svg" xmlns:xlink="http://www.w3.org/1999/xlink" id="svg4354" width="32" height="32" version="1.1"><defs id="defs4356"><linearGradient id="linearGradient26179" x1="9" x2="9" y1="22" y2="2" gradientTransform="matrix(1.3333333,0,0,1.3333333,0.73483495,-0.26516505)" gradientUnits="userSpaceOnUse" xlink:href="#linearGradient13193"/><linearGradient id="linearGradient13193"><stop style="stop-color:#000;stop-opacity:1" id="stop13195" offset="0"/><stop style="stop-color:#333;stop-opacity:1" id="stop13197" offset="1"/></linearGradient><linearGradient id="linearGradient26181" x1="14" x2="6" y1="8" y2="16" gradientUnits="userSpaceOnUse" xlink:href="#linearGradient7449"/><linearGradient id="linearGradient7449"><stop style="stop-color:#fff;stop-opacity:1" id="stop7451" offset="0"/><stop id="stop7457" offset=".125" style="stop-color:#fff;stop-opacity:0"/><stop style="stop-color:#fff;stop-opacity:0" id="stop7453" offset="1"/></linearGradient><clipPath id="clipPath7445" clipPathUnits="userSpaceOnUse"><path id="path7447" d="m 8,2.6855469 0,14.0000001 3.132812,-3.820313 2.066407,4.986328 a 1.0001,1.0001 0 1 0 1.847656,-0.765624 L 12.935547,11.990234 17.314453,12 8,2.6855469 Z" style="fill:#333;fill-opacity:1;fill-rule:evenodd;stroke:none;stroke-width:2;stroke-linecap:butt;stroke-linejoin:miter;stroke-miterlimit:4;stroke-dasharray:none;stroke-opacity:1"/></clipPath></defs><metadata id="metadata4359"/><path id="path98960" d="m 8,4.6855469 0,14.0000001 3.132812,-3.820313 2.066407,4.986328 a 1.0001,1.0001 0 1 0 1.847656,-0.765624 L 12.935547,13.990234 17.314453,14 8,4.6855469 Z" transform="matrix(1.3333333,0,0,1.3333333,0.73483495,-0.26516505)" style="opacity:.02;fill:#000;fill-opacity:1;fill-rule:evenodd;stroke:#000;stroke-width:4.50000011;stroke-linecap:butt;stroke-linejoin:round;stroke-miterlimit:4;stroke-dasharray:none;stroke-opacity:1"/><path id="path98958" d="m 8,4.6855469 0,14.0000001 3.132812,-3.820313 2.066407,4.986328 a 1.0001,1.0001 0 1 0 1.847656,-0.765624 L 12.935547,13.990234 17.314453,14 8,4.6855469 Z" transform="matrix(1.3333333,0,0,1.3333333,0.73483495,-0.26516505)" style="opacity:.2;fill:#000;fill-opacity:1;fill-rule:evenodd;stroke:#000;stroke-width:1.50000004;stroke-linecap:butt;stroke-linejoin:round;stroke-miterlimit:4;stroke-dasharray:none;stroke-opacity:1"/><path style="opacity:.05;fill:#000;fill-opacity:1;fill-rule:evenodd;stroke:#000;stroke-width:3.00000008;stroke-linecap:butt;stroke-linejoin:round;stroke-miterlimit:4;stroke-dasharray:none;stroke-opacity:1" id="path7433" d="m 8,4.6855469 0,14.0000001 3.132812,-3.820313 2.066407,4.986328 a 1.0001,1.0001 0 1 0 1.847656,-0.765624 L 12.935547,13.990234 17.314453,14 8,4.6855469 Z" transform="matrix(1.3333333,0,0,1.3333333,0.73483495,-0.26516505)"/><path id="path7431" d="m 10.068168,4.6488973 0,18.6666667 4.177083,-5.093751 2.755209,6.648437 a 1.3334666,1.3334666 0 1 0 2.463541,-1.020832 l -2.815104,-6.794271 5.838541,0.01302 -12.41927,-12.4192697 z" style="fill:none;fill-opacity:1;fill-rule:evenodd;stroke:#fff;stroke-width:2;stroke-linecap:butt;stroke-linejoin:miter;stroke-miterlimit:4;stroke-dasharray:none;stroke-opacity:1"/><path style="fill:url(#linearGradient26179);fill-opacity:1;fill-rule:evenodd;stroke:none;stroke-width:2.66666651;stroke-linecap:butt;stroke-linejoin:miter;stroke-miterlimit:4;stroke-dasharray:none;stroke-opacity:1" id="path7371" d="m 10.068168,4.6488973 0,18.6666667 4.177083,-5.093751 2.755209,6.648437 a 1.3334666,1.3334666 0 1 0 2.463541,-1.020832 l -2.815104,-6.794271 5.838541,0.01302 -12.41927,-12.4192697 z"/><path style="opacity:.4;fill:none;fill-opacity:1;fill-rule:evenodd;stroke:url(#linearGradient26181);stroke-width:2;stroke-linecap:butt;stroke-linejoin:miter;stroke-miterlimit:4;stroke-dasharray:none;stroke-opacity:1" id="path7441" d="m 8,2.6855469 0,14.0000001 3.132812,-3.820313 2.066407,4.986328 a 1.0001,1.0001 0 1 0 1.847656,-0.765624 L 12.935547,11.990234 17.314453,12 8,2.6855469 Z" clip-path="url(#clipPath7445)" transform="matrix(1.3333333,0,0,1.3333333,-0.59849835,1.0681682)"/></svg>